<svg xmlns="http://www.w3.org/2000/svg" width="300" height="300" preserveAspectRatio="xMidYMid meet" viewBox="0 0 300 300" style="width:100%;height:100%;transform:translate3d(0,0,0)"><defs><clipPath id="__lottie_element_14"><rect width="300" height="300" x="0" y="0"/></clipPath></defs><g clip-path="url(#__lottie_element_14)"><g opacity="1" style="display:block"><g opacity="1"><path fill="#000" fill-opacity="1" d="M0,148 C0,148 0,148 0,148 C-81.85299682617188,148 -148,81.85399627685547 -148,0 C-148,-81.85399627685547 -81.85299682617188,-148 0,-148 C81.85399627685547,-148 148,-81.85399627685547 148,0 C148,81.85399627685547 81.85399627685547,148 0,148z" transform="matrix(1,0,0,1,0,0) matrix(1,0,0,1,150,150)"/></g></g><g opacity="1" style="display:block"><g opacity="1"><path fill="#FFF000" fill-opacity="1" d="M-61.31399917602539,0 C-61.31399917602539,33.827999114990234 -33.827999114990234,61.31399917602539 0,61.31399917602539 C33.82899856567383,61.31399917602539 61.31399917602539,33.827999114990234 61.31399917602539,0 C61.31399917602539,-33.827999114990234 33.82899856567383,-61.31399917602539 0,-61.31399917602539 C-33.827999114990234,-61.31399917602539 -61.31399917602539,-33.827999114990234 -61.31399917602539,0z" transform="matrix(1,0,0,1,0,0) matrix(1,0,0,1,119.19100189208984,150)"/></g></g><g opacity="1" style="display:block"><g opacity="1"><path fill="#FFF000" fill-opacity="1" d="M3.4739999771118164,-21.898000717163086 C3.4739999771118164,-21.898000717163086 -25.52199935913086,-21.898000717163086 -25.52199935913086,-21.898000717163086 C-25.52199935913086,-21.898000717163086 -25.52199935913086,21.898000717163086 -25.52199935913086,21.898000717163086 C-25.52199935913086,21.898000717163086 3.4739999771118164,21.898000717163086 3.4739999771118164,21.898000717163086 C15.555999755859375,21.898000717163086 25.523000717163086,11.930000305175781 25.523000717163086,-0.1509999930858612 C25.523000717163086,-12.232999801635742 15.555999755859375,-21.898000717163086 3.4739999771118164,-21.898000717163086z" transform="matrix(1,0,0,1,0,0) matrix(1,0,0,1,225.66099548339844,149.8489990234375)"/></g></g></g></svg>